<?xml version="1.0" encoding="UTF-8"?>
<svg data-bbox="0.059 -49.746 262.477 162.117" xmlns="http://www.w3.org/2000/svg" viewBox="0 0 262.5 112.5" height="150" width="350" data-type="color">
    <g>
        <defs>
            <clipPath id="1857fe6e-85b9-4516-bd62-02c94be0df84">
                <path d="M449.9 698.32h33.102v39.418H449.9z"/>
            </clipPath>
            <clipPath id="05a5d388-95c8-4c55-be1f-24f149082535">
                <path d="M539 723h3.125v7H539z"/>
            </clipPath>
        </defs>
        <path d="M113.27 54.19c0-3.547-1.112-9.161-5.66-9.161v17.956c4.437.21 5.66-5.326 5.66-8.795m-11.152 13.742v-27.85h4.17c.967 0 12.474-1.402 12.474 14.141 0 7.95-3.057 13.71-11.74 13.71z" fill="#1c1719" data-color="1"/>
        <path d="M131.31 63.28c3.658 0 3.914-7.049 3.914-9.273 0-2.468-.256-9.261-3.914-9.261-3.647 0-3.914 6.793-3.914 9.261 0 2.224.267 9.273 3.914 9.273m9.795-9.273c0 10.451-4.88 14.365-9.795 14.365-4.903 0-9.784-3.913-9.784-14.365 0-10.45 4.88-14.365 9.784-14.365 4.914 0 9.795 3.914 9.795 14.365" fill="#1c1719" data-color="1"/>
        <path d="M149.91 52.05l.967.044c2.502 0 3.502-1.7 3.502-3.991 0-2.001-.956-3.613-3.724-3.469h-.745zm-5.492 15.888V40.087h5.536c3.503 0 9.784.367 9.784 7.972 0 3.068-1.223 5.692-3.958 7.204l4.848 12.675h-5.804l-4.836-12.853h-.078v12.853z" fill="#1c1719" data-color="1"/>
        <path d="M177.28 45.33c-.7-.189-1.367-.3-2.068-.3-4.836 0-6.949 4.391-6.949 8.683 0 4.136 2.113 9.228 6.916 9.228.689 0 1.4-.178 2.1-.4v5.203c-.81.334-1.667.478-2.545.478-7.939 0-12.341-7.17-12.341-14.476 0-6.904 4.58-13.998 12.074-13.998.967 0 1.89.19 2.813.523z" fill="#1c1719" data-color="1"/>
        <path d="M189.43 51.46l-.623-4.214h-.077l-.59 4.214-1.178 7.427h3.88zm2.435-11.374l6.693 27.851h-5.87l-1.045-4.703h-5.57l-.99 4.703h-5.47l6.46-27.851z" fill="#1c1719" data-color="1"/>
        <path d="M212.2 46.36c-1.112-.956-2.48-1.768-3.991-1.768-1.702 0-2.769 1.023-2.769 2.724 0 4.58 8.383 4.837 8.383 12.375 0 4.948-2.846 8.672-8.016 8.672-1.545 0-3.469-.478-4.725-1.4v-5.248c1.29.89 2.546 1.478 4.18 1.478 1.768 0 3.169-1.178 3.169-3.024 0-2.146-1.701-2.957-3.247-4.058-3.18-2.146-5.136-4.214-5.136-8.272 0-4.403 2.546-8.205 7.271-8.205 1.78 0 3.358.478 4.881 1.368z" fill="#1c1719" data-color="1"/>
        <g clip-path="url(#1857fe6e-85b9-4516-bd62-02c94be0df84)" transform="translate(-1280.5 -1987.45) scale(2.8463)">
            <path fill="#00abee" d="M482.52 680.78h-32.617v51.578h6.285l7.992 4.82a3.92 3.92 0 0 0 2.032.559 3.95 3.95 0 0 0 2.02-.55l8-4.829h6.288z" data-color="2"/>
        </g>
        <path d="M43.761 35.32V13.484h-4.636v24.049l2.535-1.39a8.27 8.27 0 0 1 2.101-.823" fill="#ffffff" data-color="3"/>
        <path d="M53.712 37.53V13.493h-4.647v21.836a9.161 9.161 0 0 1 2.1.812z" fill="#ffffff" data-color="3"/>
        <path d="M63.663 13.49h-4.647v26.95l4.647 2.557z" fill="#ffffff" data-color="3"/>
        <path d="M73.602 13.49h-4.636v32.421l4.636 2.546z" fill="#ffffff" data-color="3"/>
        <path fill="#1c1719" d="M46.418 103.07c-.367 0-.712-.078-.956-.233L20.98 88.072c-1.334-.8-2.457-2.802-2.457-4.359V55.328c0-.645.422-1.434.911-1.7l24.46-13.42c.656-.368 1.568-.568 2.524-.568.967 0 1.857.2 2.524.567l24.449 13.42c.49.267.923 1.056.923 1.701v28.385c0 1.557-1.134 3.558-2.457 4.359l-24.482 14.765c-.245.155-.59.233-.956.233m-2.324-6.026V72.406L22.77 59.53v24.65zm4.636-24.638v24.649L70.056 84.18V59.53zM67.865 55.45L46.418 43.677 24.971 55.45l21.447 12.92z" data-color="1"/>
        <path fill="#ffffff" d="M83.553 87.77h-4.636V13.49h4.636z" data-color="3"/>
        <g clip-path="url(#05a5d388-95c8-4c55-be1f-24f149082535)" transform="translate(-1280.5 -1987.45) scale(2.8463)">
            <path fill="#00abee" d="M542.12 724.85h-.836v4.25h-.988v-4.254h-.785v-.957h2.609z" data-color="2"/>
        </g>
        <path d="M182.39 73.03c.845 3.524 1.69 7.071 2.446 10.218.723-3.113 1.545-6.66 2.368-10.218h3.013c-1.4 4.948-2.768 9.828-4.158 14.754h-2.413c-1.39-4.88-2.801-9.873-4.191-14.732" fill="#00abee" data-color="2"/>
        <path d="M236.73 87.79h-2.88c-.177-3.903-.355-7.794-.533-11.674-.034 0-.078-.011-.123-.011-.622 3.88-1.245 7.76-1.879 11.674h-2.045c-.59-3.892-1.168-7.783-1.757-11.674h-.134c-.244 3.858-.489 7.716-.733 11.652h-2.835c.478-4.915.956-9.807 1.445-14.732h3.736c.422 3.302.845 6.593 1.278 9.995.512-3.391.99-6.671 1.479-9.995h3.736c.411 4.903.822 9.795 1.245 14.765" fill="#00abee" data-color="2"/>
        <path d="M245.16 73.01h2.835c1.279 3.524 2.568 7.049 3.747 10.262-.111-3.169-.222-6.67-.334-10.229h2.691v14.732h-2.624c-1.29-3.369-2.602-6.782-3.88-10.106v10.095h-2.435z" fill="#00abee" data-color="2"/>
        <path d="M165.54 85.09c1.367.245 2.568-.49 3.09-1.868.479-1.256.546-2.557.401-3.869-.111-.945-.278-1.879-.878-2.668-.59-.779-1.668-1.179-2.613-.934zm-2.89 2.646v-14.72c1.111 0 2.19-.055 3.268.023.723.044 1.456.211 2.157.434 1.523.466 2.613 1.478 3.157 2.98.934 2.534 1.001 5.147.056 7.682-.823 2.224-2.502 3.491-4.925 3.591-1.212.045-2.424.012-3.714.012" fill="#00abee" data-color="2"/>
        <path d="M209.51 85.22c1.946 0 2.068-3.736 2.068-4.903 0-1.312-.122-4.903-2.068-4.903-1.935 0-2.068 3.591-2.068 4.903 0 1.167.133 4.903 2.068 4.903m5.181-4.903c0 5.526-2.58 7.594-5.181 7.594-2.59 0-5.17-2.068-5.17-7.594s2.58-7.605 5.17-7.605c2.602 0 5.181 2.08 5.181 7.605" fill="#00abee" data-color="2"/>
        <path d="M107.02 78.23c-.222.945-1.1 1.39-2.212 1.156v-4.102c1.256-.323 2.09.144 2.279 1.323.088.522.055 1.1-.067 1.623m.478 2.902c.434-.278.79-.467 1.1-.712.88-.69 1.146-1.679 1.213-2.724.155-2.412-.578-4.18-3.058-4.525-1.478-.2-2.98-.122-4.48-.156h-.156V87.78h2.657v-5.814c.067-.012.133-.012.2-.023.778 1.946 1.545 3.891 2.324 5.848h2.98c-.946-2.257-1.857-4.458-2.78-6.66" fill="#00abee" data-color="2"/>
        <path d="M152.1 78.26c.645-.4 1.067-.923 1.145-1.679.056-.656-.311-1.156-.867-1.167a1.072 1.072 0 0 0-1.1 1.178c.055.645.333 1.19.822 1.668m1.312 6.537c-.656-1.034-1.268-1.99-1.89-2.968-.778.422-1.234.912-1.201 1.757.033.733.367 1.29 1.023 1.567.7.312 1.356.112 2.068-.355m-3.358-5.148c-.311-.656-.634-1.245-.867-1.868-.578-1.534-.111-3.169 1.156-3.914 1.835-1.078 4.559-.578 5.137 1.613.367 1.423-.134 2.646-1.1 3.702-.312.345-.679.656-1.09 1.045.6.967 1.2 1.946 1.89 3.069.478-.59.9-1.101 1.367-1.68.567.78 1.023 1.39 1.501 2.047-.545.511-1.056.978-1.645 1.534.5.823 1 1.656 1.556 2.568h-2.701c-.2-.278-.423-.567-.69-.934-1.19.934-2.48 1.39-3.969.912a3.688 3.688 0 0 1-2.012-1.501c-.734-1.1-.979-2.29-.712-3.58.278-1.312 1.2-2.157 2.18-3.013" fill="#00abee" data-color="2"/>
        <path d="M218.67 75.27v4.114c.145.033.211.066.29.078 1.211.111 2.011-.667 2.034-2.102.022-1.29-.467-2.457-2.324-2.09m-.067 6.449v6.06h-2.635V73.023c1.257 0 2.457-.011 3.67 0 .255 0 .522.056.778.1 2.09.378 3.19 1.624 3.28 3.88.077 1.946-.579 3.603-2.402 4.303-.567.212-1.212.256-1.823.356-.245.045-.49.033-.868.056" fill="#00abee" data-color="2"/>
        <path d="M240.44 75.63v3.146h2.935v2.646h-2.924v3.536h3.269v2.813h-5.97V73.028h5.981v2.602z" fill="#00abee" data-color="2"/>
        <path d="M196.76 75.63h-3.269v3.158h2.935v2.646h-2.924v3.502h3.258v2.835h-5.982V73.04h5.982z" fill="#00abee" data-color="2"/>
        <path d="M178.95 75.63h-3.28v3.158h2.935v2.646h-2.924v3.502h3.258v2.835h-5.982V73.04h5.993z" fill="#00abee" data-color="2"/>
        <path d="M135.81 87.79h-5.993V73.036h5.97v2.58h-3.268v3.168h2.935v2.646h-2.946v3.514h3.302z" fill="#00abee" data-color="2"/>
        <path d="M110.9 73.01h5.97v2.602h-3.28v3.168h2.947v2.646h-2.935v3.514h3.269v2.824H110.9z" fill="#00abee" data-color="2"/>
        <path d="M143.21 78.78v2.646h-3.213v6.337h-2.669V73.031h6.104v2.591h-3.39v3.158z" fill="#00abee" data-color="2"/>
        <path d="M200.91 84.94h3.269v2.835h-6.082V73.032h2.813z" fill="#00abee" data-color="2"/>
        <path d="M124.31 84.93v2.835h-6.115V73.033h2.824V84.93z" fill="#00abee" data-color="2"/>
        <path d="M127.91 87.78h-2.78V73.037h2.78z" fill="#00abee" data-color="2"/>
    </g>
</svg>
